<?xml version="1.0" standalone="no"?>
<!DOCTYPE svg PUBLIC "-//W3C//DTD SVG 20010904//EN"
 "http://www.w3.org/TR/2001/REC-SVG-20010904/DTD/svg10.dtd">
<svg version="1.0" xmlns="http://www.w3.org/2000/svg"
 width="94.000000pt" height="94.000000pt" viewBox="0 0 94.000000 94.000000"
 preserveAspectRatio="xMidYMid meet">

<g transform="translate(0.000000,94.000000) scale(0.100000,-0.100000)"
fill="#000000" stroke="none">
<path d="M606 612 c-2 -9 -7 -31 -11 -49 -7 -35 -22 -43 -122 -68 -49 -13 -74
-14 -125 -5 -87 14 -128 12 -163 -6 -27 -14 -30 -14 -42 2 -7 10 -13 22 -13
28 0 5 -2 7 -5 4 -3 -3 -1 -18 5 -33 9 -23 6 -34 -25 -83 -19 -31 -31 -60 -26
-65 4 -4 36 8 70 28 74 44 98 41 106 -13 17 -103 74 -185 160 -227 55 -27 193
-28 252 -2 l40 19 75 -41 c41 -23 78 -41 81 -41 15 0 5 42 -24 107 -31 68 -31
68 -15 119 25 81 21 162 -12 225 -26 51 -31 54 -74 60 -25 4 -63 19 -86 33
-37 23 -41 24 -46 8z"/>
</g>
</svg>
